<svg width="107" height="78" viewBox="0 0 107 78" fill="none" xmlns="http://www.w3.org/2000/svg">
<mask id="mask0" mask-type="alpha" maskUnits="userSpaceOnUse" x="37" y="0" width="70" height="70">
<rect x="37" width="70" height="70" fill="#C4C4C4"/>
</mask>
<g mask="url(#mask0)">
<path d="M56.615 25.79C56.225 26.18 55.835 26.375 55.445 26.375C55.1417 26.375 54.8383 26.2883 54.535 26.115C54.2317 25.9417 53.95 25.7683 53.69 25.595C53.3433 25.1617 53.17 24.7067 53.17 24.23C53.17 23.6233 53.4083 23.125 53.885 22.735C55.7917 21.0883 57.72 19.5283 59.67 18.055C61.6633 16.5817 63.7 15.1733 65.78 13.83C64.2633 13.31 63.115 12.92 62.335 12.66C61.555 12.4 60.9267 12.205 60.45 12.075C60.0167 11.945 59.5833 11.815 59.15 11.685C58.7167 11.555 58.0883 11.3817 57.265 11.165C56.4417 10.905 55.2283 10.5583 53.625 10.125C52.6717 9.82166 52.195 9.23666 52.195 8.37C52.195 7.76333 52.3467 7.265 52.65 6.875C52.9967 6.485 53.4517 6.29 54.015 6.29C54.3183 6.29 54.5567 6.31166 54.73 6.355C55.9 6.745 57.2433 7.17833 58.76 7.655C60.2767 8.08833 61.7933 8.54333 63.31 9.02C64.8267 9.45333 66.1917 9.84333 67.405 10.19C68.6617 10.5367 69.5933 10.8183 70.2 11.035C70.98 10.5583 71.9767 9.97333 73.19 9.28C74.4467 8.54333 75.7683 7.785 77.155 7.005C78.5417 6.225 79.8633 5.48833 81.12 4.795C82.42 4.10166 83.5033 3.53833 84.37 3.105C84.5867 2.93166 84.8683 2.845 85.215 2.845C85.7783 2.845 86.255 3.08333 86.645 3.56C87.0783 4.03666 87.295 4.51333 87.295 4.99C87.295 5.81333 86.9267 6.39833 86.19 6.745C84.7167 7.48166 83.1783 8.28333 81.575 9.15C79.9717 10.0167 77.87 11.2083 75.27 12.725C76.2667 13.0283 77.5667 13.4833 79.17 14.09C80.8167 14.6533 82.485 15.2383 84.175 15.845C85.865 16.4517 87.2733 16.9933 88.4 17.47C88.8767 17.6433 89.2017 17.9033 89.375 18.25C89.5917 18.5533 89.7 18.8783 89.7 19.225C89.7 19.875 89.505 20.395 89.115 20.785C88.725 21.1317 88.2267 21.305 87.62 21.305C87.5333 21.305 87.425 21.305 87.295 21.305C87.165 21.305 87.035 21.2833 86.905 21.24C85.8217 20.7633 84.6083 20.2867 83.265 19.81C81.965 19.3333 80.3183 18.7483 78.325 18.055C76.375 17.3617 73.8617 16.4733 70.785 15.39C68.965 16.56 67.275 17.665 65.715 18.705C64.1983 19.745 62.7033 20.8283 61.23 21.955C59.8 23.0817 58.2617 24.36 56.615 25.79ZM44.785 58.875C44.2217 58.875 43.7233 58.68 43.29 58.29C42.9 57.9 42.705 57.4233 42.705 56.86C42.705 56.6 42.77 56.3183 42.9 56.015C44.8067 52.1583 47.1683 48.3017 49.985 44.445C52.8017 40.545 55.7267 36.8833 58.76 33.46H43.355C42.705 33.46 42.2067 33.2433 41.86 32.81C41.5133 32.3333 41.34 31.8783 41.34 31.445C41.34 30.8383 41.535 30.3617 41.925 30.015C42.315 29.625 42.7917 29.43 43.355 29.43H62.4C63.3967 28.3467 64.3717 27.285 65.325 26.245C66.2783 25.1617 67.275 24.1 68.315 23.06C68.7917 22.5833 69.29 22.345 69.81 22.345C70.33 22.345 70.8067 22.5617 71.24 22.995C71.63 23.4283 71.825 23.9267 71.825 24.49C71.825 25.01 71.63 25.465 71.24 25.855L67.86 29.43H99.775C100.468 29.43 100.967 29.6467 101.27 30.08C101.617 30.5133 101.79 30.9683 101.79 31.445C101.79 31.9217 101.595 32.3767 101.205 32.81C100.858 33.2433 100.382 33.46 99.775 33.46H64.155C60.6883 37.3167 57.4167 41.325 54.34 45.485C51.2633 49.6017 48.6633 53.6967 46.54 57.77C46.3233 58.2033 46.0633 58.485 45.76 58.615C45.4567 58.7883 45.1317 58.875 44.785 58.875ZM77.22 65.245C75.8767 65.245 75.205 64.5733 75.205 63.23V44.445C74.425 44.445 73.2983 44.51 71.825 44.64C70.395 44.7267 68.9433 44.835 67.47 44.965C65.9967 45.0517 64.8267 45.16 63.96 45.29H63.83C63.57 45.29 63.3533 45.2033 63.18 45.03C63.1367 45.42 63.0933 45.875 63.05 46.395C63.05 46.8717 63.05 47.3917 63.05 47.955C63.05 49.8183 63.1367 51.8333 63.31 54C63.5267 56.1667 63.7867 57.9433 64.09 59.33C64.2633 59.8067 64.1983 60.2617 63.895 60.695C63.635 61.1717 63.2017 61.4967 62.595 61.67C62.0317 61.7133 61.5117 61.605 61.035 61.345C60.6017 61.085 60.32 60.6733 60.19 60.11C59.8 57.9433 59.4967 55.9933 59.28 54.26C59.1067 52.5267 59.02 50.7717 59.02 48.995C59.02 48.0417 59.0417 47.0667 59.085 46.07C59.1717 45.0733 59.2583 44.0333 59.345 42.95C59.4317 42.3433 59.6483 41.91 59.995 41.65C60.385 41.3467 60.7967 41.195 61.23 41.195C61.88 41.195 62.4 41.39 62.79 41.78C62.8767 41.6933 63.0067 41.6067 63.18 41.52C63.3967 41.39 63.635 41.3033 63.895 41.26C65.455 41.0433 67.2533 40.8483 69.29 40.675C71.37 40.5017 73.3417 40.3933 75.205 40.35V37.75C75.205 37.0133 75.4 36.4933 75.79 36.19C76.2233 35.8867 76.7 35.735 77.22 35.735C77.7833 35.735 78.26 35.9083 78.65 36.255C79.04 36.6017 79.235 37.1 79.235 37.75V40.285C82.615 40.3717 85.54 40.6967 88.01 41.26C90.48 41.78 92.3867 42.755 93.73 44.185C95.0733 45.615 95.745 47.7817 95.745 50.685C95.745 52.1583 95.55 53.7617 95.16 55.495C94.8133 57.2283 94.4017 58.875 93.925 60.435C93.7517 60.9117 93.4917 61.2367 93.145 61.41C92.8417 61.6267 92.5167 61.735 92.17 61.735C91.6067 61.735 91.1083 61.54 90.675 61.15C90.285 60.8033 90.09 60.305 90.09 59.655C90.09 59.395 90.1117 59.1783 90.155 59.005C90.6317 57.6183 91.0217 56.21 91.325 54.78C91.6717 53.3933 91.845 52.0933 91.845 50.88C91.845 48.8433 91.325 47.3917 90.285 46.525C89.245 45.6583 87.7717 45.1167 85.865 44.9C84.0017 44.64 81.7917 44.4883 79.235 44.445V63.23C79.235 63.9233 79.0183 64.4217 78.585 64.725C78.1517 65.0717 77.6967 65.245 77.22 65.245Z" fill="#C92236"/>
</g>
<mask id="mask1" mask-type="alpha" maskUnits="userSpaceOnUse" x="0" y="0" width="70" height="70">
<rect width="70" height="70" fill="#C4C4C4"/>
</mask>
<g mask="url(#mask1)">
<path d="M23.84 63.425C23.71 63.4683 23.5367 63.49 23.32 63.49C22.93 63.49 22.5617 63.36 22.215 63.1C21.8683 62.84 21.63 62.4717 21.5 61.995C21.2833 60.695 21.7817 59.915 22.995 59.655C23.5583 59.525 24.36 59.33 25.4 59.07C26.44 58.81 27.5017 58.5067 28.585 58.16C29.7117 57.8567 30.6 57.5967 31.25 57.38C29.9933 56.86 29.0617 56.4917 28.455 56.275C27.8483 56.0583 27.4367 55.9067 27.22 55.82C27.0033 55.7333 26.765 55.625 26.505 55.495C25.725 55.105 25.335 54.5633 25.335 53.87C25.335 53.5667 25.4 53.2633 25.53 52.96C25.92 52.18 26.4617 51.79 27.155 51.79C27.4583 51.79 27.7617 51.855 28.065 51.985C28.845 52.3317 29.3867 52.57 29.69 52.7C30.0367 52.83 30.405 52.96 30.795 53.09C31.185 53.22 31.8133 53.4367 32.68 53.74C33.59 54 35.02 54.4767 36.97 55.17C39.7867 54.13 41.845 53.1983 43.145 52.375C44.4883 51.5517 45.16 50.8583 45.16 50.295C45.16 49.4717 44.0117 48.865 41.715 48.475C39.4617 48.085 36.19 47.89 31.9 47.89C30.7733 47.89 29.625 47.9117 28.455 47.955C27.3283 47.9983 26.375 48.0633 25.595 48.15C25.1183 48.15 24.8367 48.1067 24.75 48.02C23.2767 48.9733 21.9333 49.8617 20.72 50.685C19.5067 51.5083 18.315 52.3967 17.145 53.35C16.7117 53.6533 16.3 53.805 15.91 53.805C15.39 53.805 14.8917 53.545 14.415 53.025C14.1117 52.5917 13.96 52.1583 13.96 51.725C13.96 51.1617 14.22 50.685 14.74 50.295C16.95 48.5183 19.2033 46.915 21.5 45.485C23.84 44.0117 26.2667 42.5817 28.78 41.195H20.655C20.135 41.195 19.68 41.0217 19.29 40.675C18.9 40.285 18.705 39.8517 18.705 39.375C18.3583 39.5483 17.99 39.635 17.6 39.635C17.08 39.635 16.6683 39.4617 16.365 39.115C16.0617 38.7683 15.8883 38.3567 15.845 37.88C15.6717 36.2333 15.5417 34.565 15.455 32.875C15.3683 31.1417 15.325 29.43 15.325 27.74C15.325 24.1867 15.52 20.8933 15.91 17.86C15.9533 17.34 16.2133 16.885 16.69 16.495C17.1667 16.105 17.73 15.9967 18.38 16.17C18.7267 15.8233 19.1167 15.6283 19.55 15.585L25.595 14.805C25.6383 14.7183 25.725 14.61 25.855 14.48C25.985 14.3067 26.3533 13.9383 26.96 13.375C27.5667 12.7683 28.5417 11.815 29.885 10.515H8.435C7.785 10.515 7.28667 10.2983 6.94 9.865C6.63667 9.38833 6.485 8.955 6.485 8.565C6.485 8.08833 6.65833 7.655 7.005 7.265C7.395 6.83166 7.87167 6.615 8.435 6.615H60.63C61.2367 6.615 61.7133 6.83166 62.06 7.265C62.4067 7.69833 62.58 8.13166 62.58 8.565C62.58 8.99833 62.4067 9.43167 62.06 9.865C61.7133 10.2983 61.2367 10.515 60.63 10.515H35.345C35.2583 10.6883 35.15 10.84 35.02 10.97C34.9333 11.1 34.6517 11.4033 34.175 11.88C33.6983 12.3133 32.8317 13.1367 31.575 14.35C33.525 14.22 35.3667 14.155 37.1 14.155C41.13 14.155 44.51 14.5883 47.24 15.455C49.97 16.3217 52.0283 17.795 53.415 19.875C54.845 21.9117 55.56 24.7283 55.56 28.325C55.56 29.885 55.43 31.51 55.17 33.2C54.91 34.8467 54.585 36.4933 54.195 38.14C53.9783 39.18 53.415 39.7 52.505 39.7C51.985 39.7 51.4433 39.4833 50.88 39.05C50.9667 39.6133 50.8367 40.1117 50.49 40.545C50.1433 40.9783 49.645 41.195 48.995 41.195H36.84C36.5367 41.4983 36.0167 41.845 35.28 42.235C34.5433 42.5817 33.4817 43.1233 32.095 43.86C34.045 43.8167 36.06 43.9033 38.14 44.12C40.2633 44.2933 42.2133 44.5967 43.99 45.03C45.81 45.4633 47.2617 46.07 48.345 46.85C49.4717 47.5867 50.035 48.5183 50.035 49.645C50.035 50.6417 49.645 51.595 48.865 52.505C48.1283 53.3717 47.175 54.1733 46.005 54.91C44.8783 55.6467 43.7517 56.2967 42.625 56.86C45.0083 57.4667 46.85 57.9433 48.15 58.29C49.4933 58.6367 50.5117 58.8967 51.205 59.07C51.8983 59.2433 52.4833 59.395 52.96 59.525C53.5233 59.6983 53.9133 59.9583 54.13 60.305C54.3467 60.6517 54.455 60.9983 54.455 61.345C54.455 62.0383 54.2383 62.5583 53.805 62.905C53.415 63.2517 52.9817 63.425 52.505 63.425C52.2883 63.425 52.115 63.4033 51.985 63.36C49.125 62.6233 46.7633 61.995 44.9 61.475C43.0367 60.9983 41.4983 60.5867 40.285 60.24C39.115 59.8933 38.0317 59.5683 37.035 59.265C35.3017 59.9583 33.33 60.6517 31.12 61.345C28.91 62.0383 26.4833 62.7317 23.84 63.425ZM50.36 37.815C50.9233 35.4317 51.27 33.4817 51.4 31.965C51.53 30.405 51.595 29.105 51.595 28.065C51.595 25.075 50.9883 22.8867 49.775 21.5C48.605 20.1133 46.785 19.225 44.315 18.835C41.845 18.4017 38.725 18.185 34.955 18.185C32.7017 18.185 30.34 18.2933 27.87 18.51C25.4 18.7267 22.6483 19.0517 19.615 19.485C19.5717 19.7883 19.5283 20.265 19.485 20.915C19.4417 21.565 19.42 21.955 19.42 22.085H42.95C43.6 22.085 44.0767 22.3017 44.38 22.735C44.7267 23.1683 44.9 23.6017 44.9 24.035C44.9 24.5983 44.7267 25.075 44.38 25.465C44.0333 25.8117 43.5567 25.985 42.95 25.985H19.225V29.3H42.95C43.6433 29.3 44.1417 29.5167 44.445 29.95C44.7483 30.34 44.9 30.7733 44.9 31.25C44.9 31.7267 44.7267 32.1817 44.38 32.615C44.0333 33.005 43.5567 33.2 42.95 33.2H19.355C19.355 33.5033 19.3767 34.0233 19.42 34.76C19.5067 35.4533 19.5933 36.3417 19.68 37.425V37.49C19.94 37.36 20.265 37.295 20.655 37.295H48.995C49.5583 37.295 50.0133 37.4683 50.36 37.815Z" fill="#C92236"/>
</g>
<path d="M18.108 74.224C17.9833 74.224 17.8643 74.1843 17.751 74.105C17.649 74.0257 17.5867 73.9067 17.564 73.748C17.496 72.9093 17.445 72.0197 17.411 71.079C17.377 70.1383 17.36 69.1863 17.36 68.223C17.36 67.1917 17.377 66.166 17.411 65.146C17.445 64.1147 17.496 63.1343 17.564 62.205C17.5867 62.0123 17.6547 61.882 17.768 61.814C17.8813 61.7347 17.9947 61.7063 18.108 61.729C18.312 61.763 18.448 61.8423 18.516 61.967C18.584 62.0803 18.6067 62.222 18.584 62.392C19.094 62.902 19.5417 63.3553 19.927 63.752C20.3123 64.1373 20.6807 64.5057 21.032 64.857C21.3833 65.2083 21.7573 65.588 22.154 65.996C22.5507 66.3927 23.004 66.8517 23.514 67.373C24.024 67.8943 24.6303 68.5177 25.333 69.243C26.047 69.957 26.897 70.8183 27.883 71.827C27.9737 70.9543 28.0417 70.0363 28.087 69.073C28.1437 68.1097 28.172 67.1293 28.172 66.132C28.172 65.4747 28.1607 64.823 28.138 64.177C28.1153 63.531 28.087 62.8963 28.053 62.273C28.0417 62.1143 28.087 61.984 28.189 61.882C28.291 61.78 28.427 61.729 28.597 61.729C28.7103 61.729 28.8123 61.7687 28.903 61.848C29.005 61.9273 29.0617 62.0463 29.073 62.205C29.1183 62.8623 29.1523 63.5083 29.175 64.143C29.1977 64.7663 29.209 65.3953 29.209 66.03C29.209 67.2767 29.1637 68.529 29.073 69.787C28.9823 71.0337 28.8577 72.3313 28.699 73.68C28.6877 73.8387 28.631 73.952 28.529 74.02C28.427 74.0993 28.3193 74.139 28.206 74.139C28.036 74.139 27.9 74.0767 27.798 73.952C27.696 73.8387 27.6563 73.7083 27.679 73.561C27.679 73.5157 27.6847 73.442 27.696 73.34C27.7073 73.238 27.7187 73.17 27.73 73.136L18.499 63.718C18.4537 64.432 18.4197 65.1517 18.397 65.877C18.3743 66.6023 18.363 67.3277 18.363 68.053C18.363 68.9937 18.38 69.9343 18.414 70.875C18.4593 71.8157 18.516 72.745 18.584 73.663C18.6067 73.8443 18.5613 73.9747 18.448 74.054C18.346 74.1447 18.2327 74.2013 18.108 74.224ZM37.0702 74.377C36.9795 74.3883 36.8832 74.394 36.7812 74.394C36.6905 74.394 36.5998 74.394 36.5092 74.394C35.5005 74.394 34.5995 74.1787 33.8062 73.748C33.0128 73.3287 32.3895 72.745 31.9362 71.997C31.4828 71.249 31.2562 70.3933 31.2562 69.43C31.2562 68.5233 31.4318 67.6903 31.7832 66.931C32.1458 66.1603 32.6558 65.52 33.3132 65.01C33.9705 64.5 34.7468 64.177 35.6422 64.041C35.7668 64.0183 35.9028 64.0013 36.0502 63.99C36.1975 63.9787 36.3448 63.973 36.4922 63.973C37.1042 63.973 37.7388 64.058 38.3962 64.228C39.0648 64.3867 39.6258 64.6133 40.0792 64.908C40.1358 64.7833 40.2265 64.7097 40.3512 64.687C40.4758 64.653 40.5778 64.6473 40.6572 64.67C40.7818 64.6813 40.8782 64.738 40.9462 64.84C41.0142 64.942 41.0482 65.061 41.0482 65.197C41.0368 65.4577 41.0255 65.7127 41.0142 65.962C41.0142 66.2113 41.0142 66.4607 41.0142 66.71C41.0142 67.9793 41.1048 69.107 41.2862 70.093C41.4788 71.079 41.8358 71.9403 42.3572 72.677C42.4252 72.779 42.4592 72.881 42.4592 72.983C42.4592 73.119 42.4025 73.2323 42.2892 73.323C42.1872 73.4137 42.0738 73.459 41.9492 73.459C41.7792 73.459 41.6375 73.3853 41.5242 73.238C41.4108 73.0793 41.2975 72.9037 41.1842 72.711C41.0822 72.5183 40.9972 72.3483 40.9292 72.201C40.4645 72.847 39.8978 73.3457 39.2292 73.697C38.5605 74.0597 37.8408 74.2863 37.0702 74.377ZM36.7302 73.391C37.5008 73.391 38.2092 73.1757 38.8552 72.745C39.5125 72.3143 40.0452 71.725 40.4532 70.977C40.2832 70.3423 40.1585 69.6057 40.0792 68.767C39.9998 67.9283 39.9658 67.0557 39.9772 66.149C39.7505 65.8997 39.4502 65.69 39.0762 65.52C38.7022 65.35 38.2942 65.2197 37.8522 65.129C37.4102 65.0383 36.9738 64.993 36.5432 64.993C36.2598 64.993 35.9935 65.01 35.7442 65.044C35.4948 65.078 35.2625 65.1403 35.0472 65.231C34.1858 65.5483 33.5002 66.081 32.9902 66.829C32.4915 67.5657 32.2422 68.41 32.2422 69.362C32.2422 70.2007 32.4405 70.9203 32.8372 71.521C33.2452 72.1217 33.7892 72.5863 34.4692 72.915C35.1492 73.2323 35.9028 73.391 36.7302 73.391ZM49.6036 74.224C48.6629 74.054 47.8809 73.646 47.2576 73C46.6342 72.354 46.2206 71.5493 46.0166 70.586C45.9599 70.314 45.9146 70.0363 45.8806 69.753C45.8579 69.4583 45.8466 69.1637 45.8466 68.869C45.8466 68.3817 45.8749 67.8943 45.9316 67.407C45.9996 66.9083 46.0789 66.4323 46.1696 65.979H44.1636C43.9822 65.979 43.8519 65.928 43.7726 65.826C43.6932 65.7127 43.6536 65.5937 43.6536 65.469C43.6536 65.3217 43.6989 65.2027 43.7896 65.112C43.8916 65.01 44.0162 64.959 44.1636 64.959H46.4246C46.4699 64.7777 46.5436 64.5227 46.6456 64.194C46.7476 63.8653 46.8552 63.5367 46.9686 63.208C47.0819 62.8793 47.1726 62.6243 47.2406 62.443C47.3312 62.239 47.4842 62.137 47.6996 62.137C47.8696 62.137 47.9999 62.188 48.0906 62.29C48.1926 62.392 48.2436 62.5053 48.2436 62.63C48.2436 62.698 48.2266 62.766 48.1926 62.834C48.1246 63.0267 48.0396 63.259 47.9376 63.531C47.8469 63.803 47.7562 64.0693 47.6656 64.33C47.5862 64.5793 47.5239 64.789 47.4786 64.959H52.1706C52.3519 64.959 52.4822 65.0157 52.5616 65.129C52.6409 65.2423 52.6806 65.3557 52.6806 65.469C52.6806 65.5937 52.6352 65.7127 52.5446 65.826C52.4652 65.928 52.3406 65.979 52.1706 65.979H47.2236C47.1216 66.4323 47.0366 66.914 46.9686 67.424C46.9119 67.934 46.8836 68.4213 46.8836 68.886C46.8836 69.09 46.8892 69.2883 46.9006 69.481C46.9119 69.6737 46.9346 69.855 46.9686 70.025C47.1272 70.875 47.4446 71.5947 47.9206 72.184C48.3966 72.762 49.0539 73.119 49.8926 73.255C50.0059 73.2663 50.1249 73.272 50.2496 73.272C50.3742 73.2833 50.4932 73.289 50.6066 73.289C50.9579 73.289 51.3092 73.2663 51.6606 73.221C52.0119 73.1757 52.3122 73.102 52.5616 73C52.6069 72.9887 52.6466 72.983 52.6806 72.983C52.7146 72.9717 52.7486 72.966 52.7826 72.966C53.0886 72.966 53.2416 73.153 53.2416 73.527C53.2416 73.7083 53.1226 73.8557 52.8846 73.969C52.2272 74.207 51.4906 74.326 50.6746 74.326C50.2892 74.326 49.9322 74.292 49.6036 74.224ZM60.059 74.462C59.6396 74.462 59.209 74.4223 58.767 74.343C58.325 74.2637 57.883 74.1617 57.441 74.037C57.2143 73.969 57.101 73.8273 57.101 73.612C57.101 73.2607 57.2483 73.085 57.543 73.085C57.611 73.085 57.6676 73.0907 57.713 73.102C58.2683 73.2493 58.7103 73.357 59.039 73.425C59.379 73.5043 59.6906 73.544 59.974 73.544C60.3253 73.544 60.6596 73.4873 60.977 73.374C61.2943 73.272 61.555 73.1303 61.759 72.949C61.9743 72.7563 62.082 72.5353 62.082 72.286C62.082 72.0253 61.9573 71.827 61.708 71.691C61.4586 71.5437 61.1243 71.4303 60.705 71.351C60.2856 71.2603 59.8096 71.1867 59.277 71.13C58.7556 71.062 58.2173 70.9883 57.662 70.909C56.5626 70.7163 55.7183 70.365 55.129 69.855C54.551 69.3337 54.262 68.5403 54.262 67.475C54.262 66.8063 54.4093 66.2113 54.704 65.69C55.01 65.1687 55.418 64.7323 55.928 64.381C56.438 64.0183 57.016 63.7463 57.662 63.565C58.3193 63.3723 58.9993 63.276 59.702 63.276C60.3253 63.276 60.9373 63.3553 61.538 63.514C62.1386 63.6727 62.677 63.9163 63.153 64.245C63.3116 64.3583 63.391 64.483 63.391 64.619C63.391 64.721 63.357 64.823 63.289 64.925C63.2323 65.0043 63.1643 65.061 63.085 65.095C63.017 65.1177 62.949 65.129 62.881 65.129C62.7903 65.129 62.6996 65.1007 62.609 65.044C62.2236 64.7833 61.7816 64.602 61.283 64.5C60.7843 64.3867 60.2743 64.33 59.753 64.33C58.937 64.33 58.1833 64.449 57.492 64.687C56.8006 64.925 56.2453 65.282 55.826 65.758C55.418 66.2227 55.214 66.795 55.214 67.475C55.214 68.2457 55.4293 68.818 55.86 69.192C56.302 69.5547 56.9536 69.8097 57.815 69.957C58.4383 70.059 59.056 70.1497 59.668 70.229C60.2913 70.297 60.858 70.399 61.368 70.535C61.878 70.671 62.286 70.875 62.592 71.147C62.9093 71.4077 63.068 71.7817 63.068 72.269C63.068 72.745 62.932 73.1473 62.66 73.476C62.388 73.8047 62.0196 74.0483 61.555 74.207C61.1016 74.377 60.603 74.462 60.059 74.462ZM74.8265 74.156C74.7358 74.156 74.6452 74.1277 74.5545 74.071C74.4638 74.0257 74.3958 73.9463 74.3505 73.833C74.1692 73.4137 74.0275 72.9547 73.9255 72.456C73.8235 71.9573 73.7442 71.4813 73.6875 71.028C73.4382 71.5947 73.1038 72.1103 72.6845 72.575C72.2652 73.0283 71.7892 73.391 71.2565 73.663C70.7238 73.935 70.1515 74.088 69.5395 74.122C68.3835 74.1787 67.4372 73.9917 66.7005 73.561C65.9752 73.1417 65.4368 72.5467 65.0855 71.776C64.7455 70.994 64.5755 70.1157 64.5755 69.141C64.5755 68.4383 64.6548 67.713 64.8135 66.965C64.9722 66.2057 65.1988 65.4463 65.4935 64.687C65.5728 64.4717 65.7258 64.364 65.9525 64.364C66.1112 64.364 66.2415 64.4093 66.3435 64.5C66.4455 64.5907 66.4965 64.704 66.4965 64.84C66.4965 64.8967 66.4795 64.9703 66.4455 65.061C66.1622 65.7863 65.9412 66.5003 65.7825 67.203C65.6352 67.9057 65.5615 68.5743 65.5615 69.209C65.5615 69.9683 65.6862 70.6483 65.9355 71.249C66.1848 71.8497 66.5758 72.32 67.1085 72.66C67.6412 72.9887 68.3325 73.136 69.1825 73.102C70.0212 73.068 70.7635 72.7903 71.4095 72.269C72.0668 71.7477 72.5825 71.0337 72.9565 70.127C73.3305 69.209 73.5175 68.1663 73.5175 66.999C73.5175 66.795 73.5062 66.5853 73.4835 66.37C73.4722 66.1547 73.4552 65.9393 73.4325 65.724C73.4098 65.5313 73.4552 65.401 73.5685 65.333C73.6932 65.265 73.8178 65.231 73.9425 65.231C74.1012 65.2423 74.2315 65.299 74.3335 65.401C74.4468 65.4917 74.5035 65.6163 74.5035 65.775C74.5035 66.2283 74.5148 66.744 74.5375 67.322C74.5715 67.9 74.6112 68.5007 74.6565 69.124C74.7132 69.7473 74.7755 70.348 74.8435 70.926C74.9115 71.504 74.9908 72.0197 75.0815 72.473C75.1722 72.915 75.2742 73.2493 75.3875 73.476C75.4102 73.51 75.4215 73.544 75.4215 73.578C75.4215 73.612 75.4215 73.646 75.4215 73.68C75.4215 73.8273 75.3592 73.9407 75.2345 74.02C75.1098 74.1107 74.9738 74.156 74.8265 74.156ZM78.5457 74.445C78.285 74.445 78.1207 74.3033 78.0527 74.02C77.8487 72.6147 77.6957 71.13 77.5937 69.566C77.503 67.9907 77.4577 66.4323 77.4577 64.891C77.4577 63.9617 77.4747 63.0663 77.5087 62.205C77.5087 62.0237 77.5653 61.899 77.6787 61.831C77.8033 61.7517 77.9223 61.712 78.0357 61.712C78.183 61.7233 78.302 61.78 78.3927 61.882C78.4833 61.9727 78.5287 62.0973 78.5287 62.256C78.5173 62.562 78.506 63.004 78.4947 63.582C78.4833 64.1487 78.4777 64.7493 78.4777 65.384C78.4777 65.9053 78.4777 66.421 78.4777 66.931C78.489 67.441 78.5003 67.8943 78.5117 68.291C78.5343 68.6763 78.5513 68.9653 78.5627 69.158C78.846 68.784 79.2597 68.4157 79.8037 68.053C80.359 67.679 80.9653 67.3277 81.6227 66.999C82.2913 66.6703 82.9487 66.3813 83.5947 66.132C84.252 65.8713 84.83 65.6617 85.3287 65.503C85.3967 65.4803 85.4477 65.469 85.4817 65.469C85.6177 65.469 85.7423 65.5257 85.8557 65.639C85.969 65.741 86.0257 65.8657 86.0257 66.013C86.0257 66.1037 85.9917 66.1943 85.9237 66.285C85.867 66.3757 85.7763 66.438 85.6517 66.472C84.643 66.8573 83.7137 67.2257 82.8637 67.577C82.025 67.917 81.2997 68.274 80.6877 68.648C80.0757 69.0107 79.6167 69.4187 79.3107 69.872C79.628 70.212 80.0473 70.535 80.5687 70.841C81.1013 71.147 81.6793 71.436 82.3027 71.708C82.9373 71.9687 83.5777 72.2123 84.2237 72.439C84.8697 72.6657 85.4703 72.8697 86.0257 73.051C86.2637 73.153 86.3827 73.3117 86.3827 73.527C86.3827 73.5723 86.3713 73.629 86.3487 73.697C86.258 73.935 86.1107 74.054 85.9067 74.054C85.8727 74.054 85.8103 74.0427 85.7197 74.02C85.6743 73.9973 85.459 73.918 85.0737 73.782C84.6997 73.6573 84.2237 73.4873 83.6457 73.272C83.079 73.068 82.4783 72.8357 81.8437 72.575C81.2203 72.303 80.6253 72.0083 80.0587 71.691C79.492 71.3737 79.033 71.0507 78.6817 70.722C78.7383 71.266 78.7837 71.725 78.8177 72.099C78.8517 72.4617 78.8857 72.779 78.9197 73.051C78.965 73.3343 79.0103 73.6063 79.0557 73.867C79.0783 74.0597 79.033 74.2013 78.9197 74.292C78.8063 74.394 78.6817 74.445 78.5457 74.445ZM89.9827 67.9C89.2573 67.9 88.6737 67.6733 88.2317 67.22C87.7897 66.7667 87.5687 66.2113 87.5687 65.554C87.5687 64.8513 87.7897 64.2847 88.2317 63.854C88.6737 63.4233 89.2573 63.208 89.9827 63.208C90.4587 63.208 90.878 63.3157 91.2407 63.531C91.6033 63.735 91.881 64.0127 92.0737 64.364C92.2777 64.7153 92.3797 65.112 92.3797 65.554C92.3797 65.996 92.2777 66.3927 92.0737 66.744C91.8697 67.0953 91.5863 67.3787 91.2237 67.594C90.861 67.798 90.4473 67.9 89.9827 67.9ZM89.9827 66.88C90.436 66.88 90.7817 66.7553 91.0197 66.506C91.2577 66.2567 91.3767 65.9393 91.3767 65.554C91.3767 65.1347 91.252 64.8117 91.0027 64.585C90.7533 64.347 90.4133 64.228 89.9827 64.228C89.5293 64.228 89.1837 64.3527 88.9457 64.602C88.7077 64.84 88.5887 65.1573 88.5887 65.554C88.5887 65.962 88.7133 66.285 88.9627 66.523C89.212 66.761 89.552 66.88 89.9827 66.88ZM89.9827 74.156C89.8013 74.156 89.671 74.105 89.5917 74.003C89.5123 73.9123 89.467 73.8047 89.4557 73.68C89.4217 72.8413 89.4047 71.98 89.4047 71.096C89.4047 70.348 89.4217 69.651 89.4557 69.005C89.467 68.8237 89.5293 68.699 89.6427 68.631C89.7673 68.5517 89.8863 68.5233 89.9997 68.546C90.1357 68.546 90.249 68.597 90.3397 68.699C90.4303 68.801 90.4757 68.9313 90.4757 69.09C90.453 69.2033 90.436 69.447 90.4247 69.821C90.4133 70.195 90.4077 70.6087 90.4077 71.062C90.4077 71.4247 90.4077 71.7873 90.4077 72.15C90.419 72.5013 90.4303 72.8073 90.4417 73.068C90.453 73.3287 90.4643 73.5043 90.4757 73.595C90.4757 73.7877 90.4247 73.9293 90.3227 74.02C90.2207 74.1107 90.1073 74.156 89.9827 74.156Z" fill="#C92236"/>
</svg>
